{"title":"Velainu Vandhutta Vellaikaaran 2016 TAMiL DVDSCR TC Rip 1CD MP4","uid":14799804,"size":734624054,"categoryP":"video","categoryS":"movies","magnet":"?xt=urn:btih:f3f3bf68a6a735f2194d6b9ff4a4590d5d580516&amp;dn=Velainu+Vandhutta+Vellaikaaran+2016+TAMiL+DVDSCR+TC+Rip+1CD+MP4+&amp;tr=udp%3A%2F%2Ftracker.leechers-paradise.org%3A6969&amp;tr=udp%3A%2F%2Fzer0day.ch%3A1337&amp;tr=udp%3A%2F%2Fopen.demonii.com%3A1337&amp;tr=udp%3A%2F%2Ftracker.coppersurfer.tk%3A6969&amp;tr=udp%3A%2F%2Fexodus.desync.com%3A6969","seeders":2,"leechers":0,"uploader":"CDRiPD","files":2,"time":1465116542,"description":"Velainu Vandhutta Vellaikaaran 2016 TAMiL DVDSCR TC Rip 1CD MP4 \r\n\r\n\r\nFormat                                   : MPEG-4\r\nFormat profile                           : Base Media\r\nCodec ID                                 : isom\r\nFile size                                : 701 MiB\r\nDuration                                 : 2h 7mn\r\nOverall bit rate                         : 771 Kbps\r\n\r\nVideo\r\nFormat                                   : AVC\r\nFormat/Info                              : Advanced Video Codec\r\nFormat profile                           :   \r\nFormat settings, CABAC                   : Yes\r\nFormat settings, ReFrames                : 3 frames\r\nCodec ID                                 : avc1\r\nCodec ID/Info                            : Advanced Video Coding\r\nDuration                                 : 2h 7mn\r\nBit rate                                 : 655 Kbps\r\nMaximum bit rate                         : 1 728 Kbps\r\nWidth                                    : 688 pixels\r\nHeight                                   : 286 pixels\r\nDisplay aspect ratio                     : 2.40:1\r\nFrame rate mode                          : Constant\r\nFrame rate                               : 25.000 fps\r\nColor space                              : YUV\r\nChroma subsampling                       : 4:2:0\r\nBit depth                                : 8 bits\r\nScan type                                : Progressive\r\nBits/(Pixel*Frame)                       : 0.133\r\nStream size                              : 596 MiB (85%)\r\nWriting library                          : x264 core 148 r2638 7599210\r\n\r\nAudio\r\nFormat                                   : MPEG Audio\r\nFormat version                           : Version 2\r\nFormat profile                           : Layer 3\r\nMode                                     : Joint stereo\r\nMode extension                           : MS Stereo\r\nCodec ID                                 : .mp3\r\nDuration                                 : 2h 7mn\r\nBit rate mode                            : Constant\r\nBit rate                                 : 112 Kbps\r\nMaximum bit rate                         : 117 Kbps\r\nChannel(s)                               : 2 channels\r\nSampling rate                            : 22.05 KHz\r\nCompression mode                         : Lossy\r\nStream size                              : 102 MiB (15%)\r\nLanguage                                 : Tamil  \r\n\r\n \nhttps://ititli.com/XvF \nhttps://ititli.com/XvJ \nhttps://ititli.com/Xv5 \nhttps://ititli.com/XvB \nhttps://ititli.com/XvN \nhttps://ititli.com/XvP \nhttps://ititli.com/Xvf \nhttps://ititli.com/Xvu \nhttps://ititli.com/Xvv \nhttps://ititli.com/XvR","torrent":{"xt":"urn:btih:f3f3bf68a6a735f2194d6b9ff4a4590d5d580516","amp;dn":"Velainu+Vandhutta+Vellaikaaran+2016+TAMiL+DVDSCR+TC+Rip+1CD+MP4+","amp;tr":["udp%3A%2F%2Ftracker.leechers-paradise.org%3A6969","udp%3A%2F%2Fzer0day.ch%3A1337","udp%3A%2F%2Fopen.demonii.com%3A1337","udp%3A%2F%2Ftracker.coppersurfer.tk%3A6969","udp%3A%2F%2Fexodus.desync.com%3A6969"],"infoHash":"f3f3bf68a6a735f2194d6b9ff4a4590d5d580516","infoHashBuffer":{"type":"Buffer","data":[243,243,191,104,166,167,53,242,25,77,107,159,244,164,89,13,93,88,5,22]},"announce":[],"urlList":[]}}